<svg xmlns="http://www.w3.org/2000/svg" viewBox="0 0 37.33 18.08"><defs><style>.cls-1{fill:#59606d;}.cls-2{fill:#fefefe;}.cls-3{fill:#5f6672;}.cls-4{fill:#5e6572;}.cls-5{fill:#5c6370;}.cls-6{fill:#626875;}.cls-7{fill:#5e6471;}.cls-8{fill:#5d6470;}.cls-9{fill:#5c636f;}.cls-10{fill:#fdfdfd;}.cls-11{fill:#5a616e;}</style></defs><title>Asset 14</title><g id="Layer_2" data-name="Layer 2"><g id="Layer_1-2" data-name="Layer 1"><path class="cls-1" d="M18.66,0H37.08c.19,0,.25,0,.24.24q0,7.35,0,14.69c0,.2-.06.24-.25.24H23.56c-.19,0-.25,0-.24-.23,0-.36,0-.36.37-.36H36.52c.17,0,.22,0,.22-.22V.8c0-.18-.05-.22-.22-.22Q18.67.6.82.58C.63.58.58.62.58.81q0,6.78,0,13.55c0,.19.05.23.24.23h13c.17,0,.23,0,.22.21,0,.37,0,.37-.38.37H.23c-.18,0-.23,0-.23-.23Q0,7.57,0,.23C0,0,.05,0,.23,0Z"/><path class="cls-1" d="M14.13,8.84l.34-.05c.2,0,.36-.06.5.18s.65.19.77-.15a2.75,2.75,0,0,0,.08-.88.94.94,0,0,1-.55.46.89.89,0,0,1-1.17-.65,2.3,2.3,0,0,1,0-1.42.93.93,0,0,1,1.52-.4c.06.06.1.13.16.19h0c0-.13,0-.34.06-.36a2,2,0,0,1,.6,0c.07,0,.05.06.05.1,0,.91,0,1.82,0,2.72a1,1,0,0,1-.94,1,1.64,1.64,0,0,1-.93-.09A.83.83,0,0,1,14.13,8.84Z"/><path class="cls-1" d="M18.68,6.87c-.12.51-.25,1-.36,1.46,0,.12-.08.15-.19.15-.49,0-.48,0-.56-.47-.14-1-.29-1.9-.44-2.85,0-.12,0-.15.11-.14s.38,0,.5,0,.07.31.09.48c.07.59.18,1.17.21,1.78a.17.17,0,0,0,.07-.15c.07-.35.2-.69.29-1,0-.09.06-.12.16-.12.37,0,.37,0,.47.34s.2.67.27,1c.05,0,.05-.06.05-.1,0-.68.16-1.35.21-2,0-.16.07-.22.24-.2s.3,0,.45,0l-.51,3.31c0,.11-.06.15-.18.15-.48,0-.47,0-.59-.46S18.79,7.28,18.68,6.87Z"/><path class="cls-1" d="M13.22,7.11A1.68,1.68,0,0,1,13,7.9a1.31,1.31,0,0,1-1.46.59,1.16,1.16,0,0,1-1-1,2,2,0,0,1,0-.88,1.25,1.25,0,0,1,1.53-.93C12.87,5.75,13.22,6.21,13.22,7.11Z"/><path class="cls-1" d="M29.2,7.22c-.27,0-.54,0-.81,0-.1,0-.13,0-.12.12a.64.64,0,0,0,.82.67.39.39,0,0,0,.28-.2c.05-.11.12-.11.22-.1a2,2,0,0,0,.35,0c.17,0,.16.06.08.18a1.34,1.34,0,0,1-1.4.58,1.2,1.2,0,0,1-1.09-1.14,2.21,2.21,0,0,1,0-.81,1.26,1.26,0,0,1,1.27-.91,1.17,1.17,0,0,1,1.21.88,2.26,2.26,0,0,1,.09.57c0,.1,0,.14-.12.13Z"/><path class="cls-1" d="M7.47,6.75c0-.52,0-1,0-1.57,0-.13,0-.17.16-.16a3.08,3.08,0,0,0,.43,0c.15,0,.17,0,.17.17,0,.84,0,1.68,0,2.51,0,.15,0,.2.2.2H9.65c.12,0,.15,0,.15.15,0,.44,0,.44-.43.44H7.63c-.13,0-.17,0-.17-.16,0-.52,0-1.05,0-1.57Z"/><path class="cls-1" d="M22.11,8.48H21c-.13,0-.17,0-.17-.17,0-.31,0-.31.3-.31h.57c.1,0,.15,0,.15-.14,0-.51,0-1,0-1.52,0-.11,0-.15-.15-.14h-.31c-.09,0-.23,0-.27,0a1.27,1.27,0,0,1,0-.39c0-.07.07,0,.11,0H22.4c.14,0,.12.07.12.16,0,.64,0,1.27,0,1.91,0,.16,0,.22.2.21h.56c.12,0,.15,0,.15.16,0,.33,0,.33-.33.33Z"/><path class="cls-1" d="M24.38,5.72H25c.09,0,.1,0,.11.1s.06.27.1.45a.87.87,0,0,1,.7-.62,2.29,2.29,0,0,1,.64,0c.07,0,.1,0,.1.11s0,.32,0,.5l-.31,0a.92.92,0,0,0-1.1,1v1c0,.13,0,.19-.16.17s-.42.08-.52,0,0-.33,0-.51a12.67,12.67,0,0,0-.07-1.85C24.43,6,24.41,5.85,24.38,5.72Z"/><path class="cls-1" d="M22.15,5.21c-.35,0-.34,0-.35-.35,0-.15,0-.21.19-.19h.38c.13,0,.17,0,.15.15v0C22.52,5.21,22.52,5.21,22.15,5.21Z"/><path class="cls-2" d="M15.82,7a1.65,1.65,0,0,1-.06.46c-.09.3-.26.44-.52.43a.5.5,0,0,1-.45-.47,1.92,1.92,0,0,1,0-.89.47.47,0,0,1,.42-.39.48.48,0,0,1,.49.33A1.48,1.48,0,0,1,15.82,7Z"/><path class="cls-2" d="M12.47,7.06a1.81,1.81,0,0,1-.1.63.47.47,0,0,1-.49.33.45.45,0,0,1-.49-.33,2,2,0,0,1,0-1.17.49.49,0,0,1,.57-.38c.26,0,.4.14.47.43a.86.86,0,0,1,0,.17C12.46,6.85,12.46,7,12.47,7.06Z"/><path class="cls-2" d="M28.86,6.77h-.49c-.09,0-.1,0-.09-.12a.56.56,0,0,1,.58-.55.57.57,0,0,1,.57.54c0,.1,0,.14-.11.13Z"/><path class="cls-1" d="M19.91,11.94h-3c-.35,0-.5.15-.5.5,0,1.12,0,2.24,0,3.36,0,.15,0,.19.2.19h1.55c.06,0,.18,0,.17,0s0,.23-.18.23H16.08c-.19,0-.24.06-.22.23a.65.65,0,0,1,0,.14.44.44,0,0,0,.48.48H17.8c0,.2-.12.29-.34.28-.38,0-.76,0-1.14,0a.68.68,0,0,1-.73-.71.88.88,0,0,1,0-.23c0-.14-.05-.32,0-.42s.27,0,.41,0,.12-.09.12-.18c0-1.11,0-2.21,0-3.32a.76.76,0,0,1,.83-.84c1.13,0,2.27,0,3.4,0,.72,0,.87.49.82,1,0,.09-.07.08-.13.08-.27,0-.54,0-.81,0s-.2.05-.19.2.07.19-.07.22-.23,0-.21-.16,0-.47,0-.7A1.29,1.29,0,0,1,19.91,11.94Z"/><path class="cls-1" d="M19.89,18.08H18.61a.59.59,0,0,1-.56-.9l1.05-2.1a.91.91,0,0,0,.12-.49c0-.2,0-.4,0-.61s0-.2-.09-.28a.12.12,0,0,1,.09-.22h1.41a.13.13,0,0,1,.07.24c-.08.06-.07.13-.08.22a2.64,2.64,0,0,0,.39,1.7c.29.49.52,1,.78,1.54a.59.59,0,0,1-.58.9C20.77,18.09,20.33,18.08,19.89,18.08Z"/><path class="cls-1" d="M18.8,13A1.84,1.84,0,0,1,17,14.74c-.09,0-.16,0-.16-.13s0-.15.15-.16a1.52,1.52,0,0,0,1.52-1.51c0-.14.06-.17.19-.17s.1.1.1.18S18.8,13,18.8,13Z"/><path class="cls-3" d="M17.82,13.05c-.07,0-.13-.05-.13-.14a.12.12,0,0,1,.13-.13c.08,0,.15,0,.14.14S17.9,13,17.82,13.05Z"/><path class="cls-4" d="M19.09,13.06C19,13,18.94,13,19,12.9a.12.12,0,0,1,.14-.12.12.12,0,0,1,.12.14A.14.14,0,0,1,19.09,13.06Z"/><path class="cls-4" d="M17,13.61c.07,0,.14.05.13.14a.12.12,0,0,1-.13.14c-.09,0-.14-.06-.13-.14A.13.13,0,0,1,17,13.61Z"/><path class="cls-4" d="M17,14.31c-.09,0-.15-.05-.14-.14s0-.14.13-.13a.12.12,0,0,1,.13.13C17.12,14.26,17.06,14.29,17,14.31Z"/><path class="cls-4" d="M17,14.88a.12.12,0,0,1,.1.13c0,.09-.05.14-.12.14a.13.13,0,0,1-.14-.15C16.85,14.93,16.9,14.88,17,14.88Z"/><path class="cls-4" d="M17,12.78a.11.11,0,0,1,.1.14c0,.08-.05.14-.13.13a.14.14,0,0,1-.13-.15A.13.13,0,0,1,17,12.78Z"/><path class="cls-5" d="M17.39,12.78c.1,0,.15.05.15.14a.13.13,0,0,1-.14.13c-.06,0-.14-.05-.13-.14A.12.12,0,0,1,17.39,12.78Z"/><path class="cls-6" d="M17.11,13.33c0,.09,0,.13-.13.14a.12.12,0,0,1-.13-.13c0-.08,0-.15.13-.14A.12.12,0,0,1,17.11,13.33Z"/><path class="cls-7" d="M17.55,13.61c-.08,0-.13,0-.14-.13a.13.13,0,0,1,.13-.14c.08,0,.13.05.14.13A.14.14,0,0,1,17.55,13.61Z"/><path class="cls-8" d="M18.09,13.78c0,.05,0,.1-.12.11a.13.13,0,0,1-.14-.14.13.13,0,0,1,.13-.14C18,13.62,18.09,13.66,18.09,13.78Z"/><path class="cls-6" d="M18.24,13.05c-.07,0-.13-.05-.13-.14a.13.13,0,0,1,.14-.13.12.12,0,0,1,.13.14A.14.14,0,0,1,18.24,13.05Z"/><path class="cls-6" d="M17,15.29c.07,0,.14,0,.14.13s0,.14-.12.14a.11.11,0,0,1-.14-.12C16.84,15.36,16.89,15.31,17,15.29Z"/><path class="cls-9" d="M18.79,14.31c0,.08,0,.15-.12.14s-.14,0-.14-.14,0-.13.14-.13S18.79,14.23,18.79,14.31Z"/><path class="cls-10" d="M20.47,12.49h-.21c-.21,0-.24-.06-.18-.25a.43.43,0,0,1,.48-.3.45.45,0,0,1,.36.43c0,.09,0,.12-.12.12Z"/><path class="cls-2" d="M19.93,17.81h-1.3c-.34,0-.47-.21-.32-.51s.44-.88.65-1.32c.05-.09.09-.13.19-.13h1.54a.18.18,0,0,1,.19.13l.66,1.33a.32.32,0,0,1-.31.5Z"/><path class="cls-2" d="M19.19,15.58s0-.06,0-.08A2.19,2.19,0,0,0,19.51,14c0-.28,0-.28.27-.28h.4c.14,0,.17,0,.16.16s0,.21,0,.31a1.8,1.8,0,0,0,.26,1.2s.12.14,0,.14Z"/><path class="cls-11" d="M20.42,17.39c-.15,0-.21-.08-.21-.2a.18.18,0,0,1,.2-.21.19.19,0,0,1,.2.21C20.62,17.33,20.52,17.37,20.42,17.39Z"/><path class="cls-8" d="M19.78,16.56c0,.07-.05.13-.14.12a.12.12,0,0,1-.13-.13c0-.08,0-.14.12-.14A.15.15,0,0,1,19.78,16.56Z"/></g></g></svg>