<svg xmlns="http://www.w3.org/2000/svg" viewBox="0 0 161.91 165.31"><defs><style>.cls-1{fill:#59606d;}.cls-2{fill:#5f6672;}.cls-3{fill:#5e6572;}.cls-4{fill:#5c6370;}.cls-5{fill:#626875;}.cls-6{fill:#5e6471;}.cls-7{fill:#5d6470;}.cls-8{fill:#5c636f;}.cls-9{fill:#fdfdfd;}.cls-10{fill:#fefefe;}.cls-11{fill:#5a616e;}</style></defs><title>Asset 1</title><g id="Layer_2" data-name="Layer 2"><g id="Layer_1-2" data-name="Layer 1"><path class="cls-1" d="M111.57,7.47c-1.34-.06-2.46-.15-3.57-.16q-36.72,0-73.42,0c-8.93,0-12.71,3.81-12.72,12.83,0,28.8.06,57.6-.11,86.4,0,4,1.19,5,5,4.92,13.31-.23,26.63-.13,39.95,0,1.54,0,4.57-1.11,4.41,1.21s-.75,5.91-4.73,5.92h-3.5c-16.65,0-33.3.2-49.94-.13-4.8-.1-6.19,1.48-5.54,5.85a27.07,27.07,0,0,1,0,3.49c.12,8.2,4.11,12.31,12.22,12.37,10.82.07,21.64,0,32.46,0h5.12c-1,5.21-3.14,7.58-8.72,7.28-9.79-.52-19.63-.09-29.46-.16C8,147.23.74,140.16.35,129c-.07-2,0-4,0-6,.07-3.65-1.14-8.28.63-10.69,2-2.64,6.85-1,10.43-.88,3.88.09,3.24-2.32,3.24-4.58,0-28.47.29-56.94-.13-85.4C14.31,7.89,22.89-.24,36,0c29.12.54,58.27.38,87.4.09,18.46-.19,22.28,12.65,21.06,26.59-.19,2.28-1.82,2-3.28,2-7,0-14,.26-21-.08-4.06-.2-5.13,1.2-4.93,5,.1,1.88,1.77,5-1.72,5.71-3.17.66-5.78.45-5.39-4.31.48-6,.2-12,.2-18C108.32,13.6,110.41,10.85,111.57,7.47Z"/><path class="cls-1" d="M111.06,165.3H78.11c-13.3,0-20.3-11.29-14.36-23.26,8.93-18,17.86-36,27-53.85a23.84,23.84,0,0,0,3-12.71c-.32-5.16-.14-10.37-.08-15.55,0-2.73.45-5.18-2.37-7.33-2.42-1.84-.89-5.55,2.3-5.6,12.15-.19,24.3-.23,36.44,0,3.45.08,4.56,3.77,1.79,6-2.06,1.69-1.93,3.49-2.16,5.63-1.67,15.72,1.92,30,10,43.68,7.46,12.73,13.42,26.34,20,39.58,6.13,12.33-.75,23.3-14.66,23.35C133.69,165.33,122.37,165.3,111.06,165.3Z"/><path class="cls-1" d="M82.83,34.3c-1.28,25.21-21.89,44.86-46.16,45-2.23,0-4.23.31-4.15-3.15.07-2.87.58-3.95,3.82-4.1C59.9,70.94,76,52.8,75.53,33.05c-.08-3.64,1.47-4.34,4.73-4.23,3.72.12,2.72,2.37,2.58,4.42A5.17,5.17,0,0,0,82.83,34.3Z"/><path class="cls-2" d="M57.85,36c-1.91-.51-3.38-1.37-3.42-3.59S55.6,29,57.71,29s3.82,1.07,3.66,3.56C61.23,34.72,59.72,35.62,57.85,36Z"/><path class="cls-3" d="M90.31,36.07c-2-.64-3.87-1.59-3.61-4A3.21,3.21,0,0,1,90.33,29a3.09,3.09,0,0,1,3.19,3.52C93.47,34.63,92.21,35.65,90.31,36.07Z"/><path class="cls-3" d="M36.28,50.34C38,51,39.66,51.68,39.57,54s-1.24,3.41-3.44,3.36a3.13,3.13,0,0,1-3.37-3.48C32.89,52,33.83,50.35,36.28,50.34Z"/><path class="cls-3" d="M36.43,68.3c-2.21-.38-3.88-1.28-3.68-3.48.17-1.87,1.18-3.6,3.46-3.5a3.18,3.18,0,0,1,3.39,3.44C39.63,67.09,38.1,67.83,36.43,68.3Z"/><path class="cls-3" d="M36.85,82.93a3,3,0,0,1,2.72,3.45c0,2.12-1.23,3.6-3.23,3.5s-3.81-1.42-3.59-3.8C32.93,84.16,34.13,82.82,36.85,82.93Z"/><path class="cls-3" d="M37,29c1.53.23,2.7,1.33,2.6,3.52s-1.32,3.58-3.31,3.42-3.8-1.5-3.5-3.89C33,30.13,34.22,28.82,37,29Z"/><path class="cls-4" d="M46.7,29c2.64.05,3.74,1.3,3.78,3.45A3.08,3.08,0,0,1,47,35.83c-1.7-.13-3.65-1.16-3.5-3.48A3.27,3.27,0,0,1,46.7,29Z"/><path class="cls-5" d="M39.58,43.13a3.07,3.07,0,0,1-3.32,3.47c-2.12,0-3.56-1.11-3.56-3.29S34,39.62,36,39.67A3.38,3.38,0,0,1,39.58,43.13Z"/><path class="cls-6" d="M50.71,50.28c-1.88-.28-3.34-1.07-3.42-3.34a3.15,3.15,0,0,1,3.19-3.59A3.11,3.11,0,0,1,54,46.6,3.41,3.41,0,0,1,50.71,50.28Z"/><path class="cls-7" d="M64.72,54.73c-.08,1.2-.95,2.63-3.23,2.64S58.06,56.22,58.07,54s.93-3.67,3.16-3.61C63.22,50.48,64.66,51.61,64.72,54.73Z"/><path class="cls-5" d="M68.66,36c-1.92-.63-3.49-1.46-3.39-3.78s1.46-3.3,3.57-3.22,3.48,1.39,3.31,3.53A3.56,3.56,0,0,1,68.66,36Z"/><path class="cls-5" d="M35.87,93.51c1.81.47,3.53,1.06,3.69,3.36s-.94,3.53-3.11,3.67-3.6-.92-3.74-3.09S33.88,94.11,35.87,93.51Z"/><path class="cls-8" d="M82.77,68.2c-.21,2.24-1,3.84-3.3,3.6-1.94-.21-3.41-1.3-3.39-3.52a3,3,0,0,1,3.4-3.34A3.09,3.09,0,0,1,82.77,68.2Z"/><path class="cls-9" d="M125.92,21.47h-5.47c-5.29,0-6.26-1.37-4.64-6.47,1.73-5.43,6.58-8.38,12.41-7.54,5.06.72,8.81,5.37,9.1,10.85.13,2.38-.48,3.33-2.94,3.19C131.57,21.34,128.74,21.47,125.92,21.47Z"/><path class="cls-10" d="M112.05,158.16c-11.15,0-22.31,0-33.46,0-8.68,0-12.1-5.35-8.32-13.12,5.53-11.35,11.34-22.55,16.86-33.9C88.22,108.89,89.41,108,92,108q19.72.19,39.46,0c2.54,0,3.83.88,4.93,3.12,5.61,11.5,11.46,22.89,17.07,34.4,3.48,7.16,0,12.62-7.92,12.64C134.36,158.19,123.21,158.16,112.05,158.16Z"/><path class="cls-10" d="M92.92,100.81A6,6,0,0,1,93.31,99c8.24-11.36,8.3-24.37,7.8-37.56-.28-7.31-.06-7.31,7-7.31,3.48,0,7,.22,10.45-.07s4.31,1.14,4,4.27c-.22,2.63.13,5.32-.07,8-.82,11,.25,21.44,6.73,30.83.75,1.1,2.94,3.64-.93,3.68C116.58,100.89,104.85,100.81,92.92,100.81Z"/><path class="cls-11" d="M124.45,147.37c-3.64-.18-5.18-2.07-5.29-5.12-.13-3.45,1.89-5.3,5.15-5.35s5.19,2,5.23,5.33C129.59,145.81,127.12,147,124.45,147.37Z"/><path class="cls-7" d="M108.18,126.11c-.49,1.88-1.43,3.28-3.66,3.15s-3.33-1.06-3.32-3.37,1.13-3.57,3.16-3.57C106.56,122.32,107.85,123.83,108.18,126.11Z"/></g></g></svg>